<!DOCTYPE svg PUBLIC "-//W3C//DTD SVG 1.1//EN" "http://www.w3.org/Graphics/SVG/1.1/DTD/svg11.dtd">
<!-- Uploaded to: SVG Repo, www.svgrepo.com, Transformed by: SVG Repo Mixer Tools -->
<svg fill="#444" width="256px" height="256px" viewBox="-3.84 -3.84 39.68 39.68" xmlns="http://www.w3.org/2000/svg" stroke="#444" stroke-width="0.00032">
<g id="SVGRepo_bgCarrier" stroke-width="0">
<path transform="translate(-3.84, -3.84), scale(1.24)" d="M16,31.86548665041725C19.97584279580957,31.901539761665735,22.908169009244492,28.528627881088653,25.635191477983213,25.635191477983216C28.250802640503686,22.859965149354547,31.059087391223162,19.81209223701176,30.95299448321263,16C30.848650828679418,12.250761310190322,27.954969251107904,9.334694665987453,25.113406291575608,6.8865937084243924C22.524331250930828,4.656019486958488,19.413510773760304,3.2809457488233322,16,3.1174981395403556C12.390684656733715,2.9446749076525083,8.740679270721397,3.6504478424572904,5.969956464531297,5.969956464531293C2.9484283658885193,8.499426558393846,0.4966799061003936,12.061132701410106,0.6114640980958939,15.999999999999996C0.7241603112446169,19.867217435862806,3.8443478967869087,22.684896002722986,6.537982820804071,25.462017179195925C9.294424585119586,28.303891824917688,12.041094352450173,31.829587125948173,16,31.86548665041725" fill="#ffd9b7" strokewidth="0"/>
</g>
<g id="SVGRepo_tracerCarrier" stroke-linecap="round" stroke-linejoin="round"/>
<g id="SVGRepo_iconCarrier"> <path d="M6.67,26.06c.09,0,8.77-.14,8.77-11.89A7.22,7.22,0,1,0,5.67,20.9v4.16A1,1,0,0,0,6.67,26.06ZM3,14.17a5.22,5.22,0,1,1,10.44,0c0,7.5-3.88,9.31-5.77,9.75V20.17a1,1,0,0,0-.75-1A5.21,5.21,0,0,1,3,14.17Z"/> <path d="M22.22,26.06c.09,0,8.78-.14,8.78-11.89a7.22,7.22,0,1,0-9.78,6.73v4.16A1,1,0,0,0,22.22,26.06ZM18.56,14.17a5.22,5.22,0,1,1,10.44,0c0,7.5-3.89,9.31-5.78,9.75V20.17a1,1,0,0,0-.75-1A5.21,5.21,0,0,1,18.56,14.17Z"/> </g>
</svg>