<!DOCTYPE svg PUBLIC "-//W3C//DTD SVG 1.1//EN" "http://www.w3.org/Graphics/SVG/1.1/DTD/svg11.dtd">

<!-- Uploaded to: SVG Repo, www.svgrepo.com, Transformed by: SVG Repo Mixer Tools -->
<svg fill="#444444" width="48px" height="48px" viewBox="-3.2 -3.2 38.40 38.40" xmlns="http://www.w3.org/2000/svg" stroke="#444444" stroke-width="0.00032">

<g id="SVGRepo_bgCarrier" stroke-width="0" transform="translate(0,0), scale(1)">

<path transform="translate(-3.2, -3.2), scale(1.2)" d="M16,31.158879943192005C20.158070149887575,30.671956538819305,19.794116852148008,24.37617421912696,22.27195553611304,21.00171763630382C24.500545561222925,17.966701543725865,29.391955831305914,16.713190393880936,29.372201902725944,12.947882177475257C29.349868474748288,8.690894028290414,26.310551248410587,4.194042046680453,22.178407159877338,3.1704053357789945C18.37738609200541,2.228796180672139,16.041905840378423,7.061809753999452,12.519704478698843,8.773091883623271C9.029631638177674,10.468764183352695,3.535219180712133,9.20204459322847,2.2375175204765654,12.858803182640003C0.9223344062324901,16.564822290905624,5.205434304893555,19.58059365326498,7.569025082839245,22.72347813877073C10.08292465890921,26.06622936689019,11.8458420362136,31.64534521797423,16,31.158879943192005" fill="#C8E4B2" strokewidth="0"/>

</g>

<g id="SVGRepo_tracerCarrier" stroke-linecap="round" stroke-linejoin="round"/>

<g id="SVGRepo_iconCarrier"> <path d="M6.67,26.06c.09,0,8.77-.14,8.77-11.89A7.22,7.22,0,1,0,5.67,20.9v4.16A1,1,0,0,0,6.67,26.06ZM3,14.17a5.22,5.22,0,1,1,10.44,0c0,7.5-3.88,9.31-5.77,9.75V20.17a1,1,0,0,0-.75-1A5.21,5.21,0,0,1,3,14.17Z"/> <path d="M22.22,26.06c.09,0,8.78-.14,8.78-11.89a7.22,7.22,0,1,0-9.78,6.73v4.16A1,1,0,0,0,22.22,26.06ZM18.56,14.17a5.22,5.22,0,1,1,10.44,0c0,7.5-3.89,9.31-5.78,9.75V20.17a1,1,0,0,0-.75-1A5.21,5.21,0,0,1,18.56,14.17Z"/> </g>

</svg>